<mxfile host="app.diagrams.net" agent="Mozilla/5.0 (Windows NT 10.0; Win64; x64; rv:136.0) Gecko/20100101 Firefox/136.0" version="26.2.3">
  <diagram name="Page-1" id="c7488fd3-1785-93aa-aadb-54a6760d102a">
    <mxGraphModel dx="1429" dy="2018" grid="1" gridSize="10" guides="1" tooltips="1" connect="1" arrows="1" fold="1" page="1" pageScale="1" pageWidth="1100" pageHeight="850" background="none" math="0" shadow="0">
      <root>
        <mxCell id="0" />
        <mxCell id="1" parent="0" />
        <mxCell id="bBXWs2izji7ijMaOlB8e-4" style="edgeStyle=orthogonalEdgeStyle;rounded=0;orthogonalLoop=1;jettySize=auto;html=1;dashed=1;endArrow=none;startFill=0;" edge="1" parent="1" source="bBXWs2izji7ijMaOlB8e-1">
          <mxGeometry relative="1" as="geometry">
            <mxPoint x="55" y="800" as="targetPoint" />
          </mxGeometry>
        </mxCell>
        <mxCell id="bBXWs2izji7ijMaOlB8e-1" value="Оператор" style="shape=umlActor;verticalLabelPosition=bottom;verticalAlign=top;html=1;outlineConnect=0;" vertex="1" parent="1">
          <mxGeometry x="40" y="60" width="30" height="60" as="geometry" />
        </mxCell>
        <mxCell id="bBXWs2izji7ijMaOlB8e-5" value="Оператор" style="shape=umlActor;verticalLabelPosition=bottom;verticalAlign=top;html=1;outlineConnect=0;" vertex="1" parent="1">
          <mxGeometry x="40" y="800" width="30" height="60" as="geometry" />
        </mxCell>
        <mxCell id="bBXWs2izji7ijMaOlB8e-60" value="Основной рабочий процесс" style="shape=umlFrame;whiteSpace=wrap;html=1;pointerEvents=0;recursiveResize=0;container=1;collapsible=0;width=120;height=30;" vertex="1" parent="1">
          <mxGeometry x="20" y="160" width="1240" height="170" as="geometry" />
        </mxCell>
        <mxCell id="bBXWs2izji7ijMaOlB8e-89" value="" style="endArrow=classic;html=1;rounded=0;" edge="1" parent="bBXWs2izji7ijMaOlB8e-60">
          <mxGeometry width="50" height="50" relative="1" as="geometry">
            <mxPoint x="390" y="40" as="sourcePoint" />
            <mxPoint x="550" y="40" as="targetPoint" />
          </mxGeometry>
        </mxCell>
        <mxCell id="bBXWs2izji7ijMaOlB8e-90" value="отправка сигналов" style="edgeLabel;html=1;align=center;verticalAlign=middle;resizable=0;points=[];" vertex="1" connectable="0" parent="bBXWs2izji7ijMaOlB8e-89">
          <mxGeometry y="2" relative="1" as="geometry">
            <mxPoint as="offset" />
          </mxGeometry>
        </mxCell>
        <mxCell id="bBXWs2izji7ijMaOlB8e-91" value="" style="endArrow=classic;html=1;rounded=0;" edge="1" parent="bBXWs2izji7ijMaOlB8e-60">
          <mxGeometry width="50" height="50" relative="1" as="geometry">
            <mxPoint x="550" y="60" as="sourcePoint" />
            <mxPoint x="700" y="60" as="targetPoint" />
          </mxGeometry>
        </mxCell>
        <mxCell id="bBXWs2izji7ijMaOlB8e-92" value="&lt;div&gt;передача сигналов&lt;/div&gt;" style="edgeLabel;html=1;align=center;verticalAlign=middle;resizable=0;points=[];" vertex="1" connectable="0" parent="bBXWs2izji7ijMaOlB8e-91">
          <mxGeometry x="0.1778" y="2" relative="1" as="geometry">
            <mxPoint x="-18" y="2" as="offset" />
          </mxGeometry>
        </mxCell>
        <mxCell id="bBXWs2izji7ijMaOlB8e-95" value="" style="endArrow=classic;html=1;rounded=0;" edge="1" parent="bBXWs2izji7ijMaOlB8e-60">
          <mxGeometry width="50" height="50" relative="1" as="geometry">
            <mxPoint x="700" y="110" as="sourcePoint" />
            <mxPoint x="840" y="110" as="targetPoint" />
          </mxGeometry>
        </mxCell>
        <mxCell id="bBXWs2izji7ijMaOlB8e-96" value="&lt;div&gt;передача обработанных&lt;/div&gt;&lt;div&gt;сигналов&lt;/div&gt;" style="edgeLabel;html=1;align=center;verticalAlign=middle;resizable=0;points=[];fontSize=9;" vertex="1" connectable="0" parent="bBXWs2izji7ijMaOlB8e-95">
          <mxGeometry x="-0.0714" y="-2" relative="1" as="geometry">
            <mxPoint x="3" y="-2" as="offset" />
          </mxGeometry>
        </mxCell>
        <mxCell id="bBXWs2izji7ijMaOlB8e-101" value="" style="endArrow=classic;html=1;rounded=0;" edge="1" parent="bBXWs2izji7ijMaOlB8e-60">
          <mxGeometry width="50" height="50" relative="1" as="geometry">
            <mxPoint x="840" y="130" as="sourcePoint" />
            <mxPoint x="210" y="130" as="targetPoint" />
          </mxGeometry>
        </mxCell>
        <mxCell id="bBXWs2izji7ijMaOlB8e-102" value="превышение порога, отправка команды" style="edgeLabel;html=1;align=center;verticalAlign=middle;resizable=0;points=[];" vertex="1" connectable="0" parent="bBXWs2izji7ijMaOlB8e-101">
          <mxGeometry x="-0.0622" y="1" relative="1" as="geometry">
            <mxPoint x="6" as="offset" />
          </mxGeometry>
        </mxCell>
        <mxCell id="bBXWs2izji7ijMaOlB8e-61" value="Самодиагностика и статус" style="shape=umlFrame;whiteSpace=wrap;html=1;pointerEvents=0;recursiveResize=0;container=1;collapsible=0;width=120;height=30;" vertex="1" parent="1">
          <mxGeometry x="20" y="370" width="1080" height="170" as="geometry" />
        </mxCell>
        <mxCell id="bBXWs2izji7ijMaOlB8e-85" value="" style="endArrow=none;dashed=1;html=1;rounded=0;entryX=0.5;entryY=1;entryDx=0;entryDy=0;exitX=0.5;exitY=0;exitDx=0;exitDy=0;" edge="1" parent="bBXWs2izji7ijMaOlB8e-61">
          <mxGeometry width="50" height="50" relative="1" as="geometry">
            <mxPoint x="699.29" y="430" as="sourcePoint" />
            <mxPoint x="699.29" y="-250" as="targetPoint" />
          </mxGeometry>
        </mxCell>
        <mxCell id="bBXWs2izji7ijMaOlB8e-86" value="" style="endArrow=none;dashed=1;html=1;rounded=0;entryX=0.5;entryY=1;entryDx=0;entryDy=0;exitX=0.5;exitY=0;exitDx=0;exitDy=0;" edge="1" parent="bBXWs2izji7ijMaOlB8e-61">
          <mxGeometry width="50" height="50" relative="1" as="geometry">
            <mxPoint x="840" y="430" as="sourcePoint" />
            <mxPoint x="840" y="-250" as="targetPoint" />
          </mxGeometry>
        </mxCell>
        <mxCell id="bBXWs2izji7ijMaOlB8e-87" value="" style="endArrow=none;dashed=1;html=1;rounded=0;entryX=0.5;entryY=1;entryDx=0;entryDy=0;exitX=0.5;exitY=0;exitDx=0;exitDy=0;" edge="1" parent="bBXWs2izji7ijMaOlB8e-61">
          <mxGeometry width="50" height="50" relative="1" as="geometry">
            <mxPoint x="990" y="430" as="sourcePoint" />
            <mxPoint x="990" y="-250" as="targetPoint" />
          </mxGeometry>
        </mxCell>
        <mxCell id="bBXWs2izji7ijMaOlB8e-62" value="Ручное управление" style="shape=umlFrame;whiteSpace=wrap;html=1;pointerEvents=0;recursiveResize=0;container=1;collapsible=0;width=120;height=30;" vertex="1" parent="1">
          <mxGeometry x="20" y="570" width="1240" height="170" as="geometry" />
        </mxCell>
        <mxCell id="bBXWs2izji7ijMaOlB8e-64" value="Система управления защитой" style="rounded=1;whiteSpace=wrap;html=1;fillColor=#E6E6E6;" vertex="1" parent="1">
          <mxGeometry x="170" y="60" width="120" height="60" as="geometry" />
        </mxCell>
        <mxCell id="bBXWs2izji7ijMaOlB8e-66" value="Система управления защитой" style="rounded=1;whiteSpace=wrap;html=1;fillColor=#E6E6E6;" vertex="1" parent="1">
          <mxGeometry x="170" y="800" width="120" height="60" as="geometry" />
        </mxCell>
        <mxCell id="bBXWs2izji7ijMaOlB8e-67" value="Датчики" style="rounded=1;whiteSpace=wrap;html=1;fillColor=#E6E6E6;" vertex="1" parent="1">
          <mxGeometry x="350" y="60" width="120" height="60" as="geometry" />
        </mxCell>
        <mxCell id="bBXWs2izji7ijMaOlB8e-68" value="Датчики" style="rounded=1;whiteSpace=wrap;html=1;fillColor=#E6E6E6;" vertex="1" parent="1">
          <mxGeometry x="350" y="800" width="120" height="60" as="geometry" />
        </mxCell>
        <mxCell id="bBXWs2izji7ijMaOlB8e-69" value="1. Интерфейс связи" style="rounded=1;whiteSpace=wrap;html=1;fillColor=#E6E6E6;" vertex="1" parent="1">
          <mxGeometry x="510" y="60" width="120" height="60" as="geometry" />
        </mxCell>
        <mxCell id="bBXWs2izji7ijMaOlB8e-70" value="1. Интерфейс связи" style="rounded=1;whiteSpace=wrap;html=1;fillColor=#E6E6E6;" vertex="1" parent="1">
          <mxGeometry x="510" y="800" width="120" height="60" as="geometry" />
        </mxCell>
        <mxCell id="bBXWs2izji7ijMaOlB8e-71" value="2. Модуль обработки сигналов" style="rounded=1;whiteSpace=wrap;html=1;fillColor=#E6E6E6;" vertex="1" parent="1">
          <mxGeometry x="660" y="60" width="120" height="60" as="geometry" />
        </mxCell>
        <mxCell id="bBXWs2izji7ijMaOlB8e-72" value="2. Модуль обработки сигналов" style="rounded=1;whiteSpace=wrap;html=1;fillColor=#E6E6E6;" vertex="1" parent="1">
          <mxGeometry x="660" y="800" width="120" height="60" as="geometry" />
        </mxCell>
        <mxCell id="bBXWs2izji7ijMaOlB8e-73" value="3. Блок принятия решений" style="rounded=1;whiteSpace=wrap;html=1;fillColor=#E6E6E6;" vertex="1" parent="1">
          <mxGeometry x="800" y="60" width="120" height="60" as="geometry" />
        </mxCell>
        <mxCell id="bBXWs2izji7ijMaOlB8e-74" value="3. Блок принятия решений" style="rounded=1;whiteSpace=wrap;html=1;fillColor=#E6E6E6;" vertex="1" parent="1">
          <mxGeometry x="800" y="800" width="120" height="60" as="geometry" />
        </mxCell>
        <mxCell id="bBXWs2izji7ijMaOlB8e-75" value="4. Система диагностики" style="rounded=1;whiteSpace=wrap;html=1;fillColor=#E6E6E6;" vertex="1" parent="1">
          <mxGeometry x="950" y="60" width="120" height="60" as="geometry" />
        </mxCell>
        <mxCell id="bBXWs2izji7ijMaOlB8e-76" value="4. Система диагностики" style="rounded=1;whiteSpace=wrap;html=1;fillColor=#E6E6E6;" vertex="1" parent="1">
          <mxGeometry x="950" y="800" width="120" height="60" as="geometry" />
        </mxCell>
        <mxCell id="bBXWs2izji7ijMaOlB8e-80" value="5. Журнал событий" style="rounded=1;whiteSpace=wrap;html=1;fillColor=#E6E6E6;" vertex="1" parent="1">
          <mxGeometry x="1120" y="60" width="120" height="60" as="geometry" />
        </mxCell>
        <mxCell id="bBXWs2izji7ijMaOlB8e-81" value="5. Журнал событий" style="rounded=1;whiteSpace=wrap;html=1;fillColor=#E6E6E6;" vertex="1" parent="1">
          <mxGeometry x="1120" y="800" width="120" height="60" as="geometry" />
        </mxCell>
        <mxCell id="bBXWs2izji7ijMaOlB8e-82" value="" style="endArrow=none;dashed=1;html=1;rounded=0;entryX=0.5;entryY=1;entryDx=0;entryDy=0;exitX=0.5;exitY=0;exitDx=0;exitDy=0;" edge="1" parent="1" source="bBXWs2izji7ijMaOlB8e-66" target="bBXWs2izji7ijMaOlB8e-64">
          <mxGeometry width="50" height="50" relative="1" as="geometry">
            <mxPoint x="420" y="710" as="sourcePoint" />
            <mxPoint x="470" y="660" as="targetPoint" />
          </mxGeometry>
        </mxCell>
        <mxCell id="bBXWs2izji7ijMaOlB8e-83" value="" style="endArrow=none;dashed=1;html=1;rounded=0;entryX=0.5;entryY=1;entryDx=0;entryDy=0;exitX=0.5;exitY=0;exitDx=0;exitDy=0;" edge="1" parent="1" source="bBXWs2izji7ijMaOlB8e-68" target="bBXWs2izji7ijMaOlB8e-67">
          <mxGeometry width="50" height="50" relative="1" as="geometry">
            <mxPoint x="430" y="710" as="sourcePoint" />
            <mxPoint x="420" y="119.99999999999977" as="targetPoint" />
          </mxGeometry>
        </mxCell>
        <mxCell id="bBXWs2izji7ijMaOlB8e-84" value="" style="endArrow=none;dashed=1;html=1;rounded=0;entryX=0.5;entryY=1;entryDx=0;entryDy=0;exitX=0.5;exitY=0;exitDx=0;exitDy=0;" edge="1" parent="1" source="bBXWs2izji7ijMaOlB8e-70" target="bBXWs2izji7ijMaOlB8e-69">
          <mxGeometry width="50" height="50" relative="1" as="geometry">
            <mxPoint x="590" y="730" as="sourcePoint" />
            <mxPoint x="640" y="680" as="targetPoint" />
          </mxGeometry>
        </mxCell>
        <mxCell id="bBXWs2izji7ijMaOlB8e-88" value="" style="endArrow=none;dashed=1;html=1;rounded=0;entryX=0.5;entryY=1;entryDx=0;entryDy=0;exitX=0.5;exitY=0;exitDx=0;exitDy=0;" edge="1" parent="1">
          <mxGeometry width="50" height="50" relative="1" as="geometry">
            <mxPoint x="1179.29" y="800" as="sourcePoint" />
            <mxPoint x="1179.29" y="120" as="targetPoint" />
          </mxGeometry>
        </mxCell>
        <mxCell id="bBXWs2izji7ijMaOlB8e-93" value="" style="endArrow=classic;html=1;rounded=0;" edge="1" parent="1">
          <mxGeometry width="50" height="50" relative="1" as="geometry">
            <mxPoint x="720" y="190" as="sourcePoint" />
            <mxPoint x="720" y="240" as="targetPoint" />
            <Array as="points">
              <mxPoint x="760" y="190" />
              <mxPoint x="760" y="240" />
            </Array>
          </mxGeometry>
        </mxCell>
        <mxCell id="bBXWs2izji7ijMaOlB8e-94" value="&lt;div&gt;анализ и обработка&lt;/div&gt;&lt;div&gt;сигналов&lt;/div&gt;" style="edgeLabel;html=1;align=center;verticalAlign=middle;resizable=0;points=[];" vertex="1" connectable="0" parent="bBXWs2izji7ijMaOlB8e-93">
          <mxGeometry x="0.0256" y="2" relative="1" as="geometry">
            <mxPoint x="18" as="offset" />
          </mxGeometry>
        </mxCell>
        <mxCell id="bBXWs2izji7ijMaOlB8e-97" value="" style="endArrow=classic;html=1;rounded=0;" edge="1" parent="1">
          <mxGeometry width="50" height="50" relative="1" as="geometry">
            <mxPoint x="860" y="190" as="sourcePoint" />
            <mxPoint x="860" y="240" as="targetPoint" />
            <Array as="points">
              <mxPoint x="890" y="190" />
              <mxPoint x="890" y="240" />
            </Array>
          </mxGeometry>
        </mxCell>
        <mxCell id="bBXWs2izji7ijMaOlB8e-98" value="&lt;div&gt;сравнение данных&lt;/div&gt;&lt;div&gt;с порогами&lt;/div&gt;" style="edgeLabel;html=1;align=center;verticalAlign=middle;resizable=0;points=[];" vertex="1" connectable="0" parent="bBXWs2izji7ijMaOlB8e-97">
          <mxGeometry x="0.0364" relative="1" as="geometry">
            <mxPoint as="offset" />
          </mxGeometry>
        </mxCell>
        <mxCell id="bBXWs2izji7ijMaOlB8e-104" value="" style="endArrow=classic;html=1;rounded=0;" edge="1" parent="1">
          <mxGeometry width="50" height="50" relative="1" as="geometry">
            <mxPoint x="230" y="320" as="sourcePoint" />
            <mxPoint x="1180" y="320" as="targetPoint" />
          </mxGeometry>
        </mxCell>
        <mxCell id="bBXWs2izji7ijMaOlB8e-105" value="передача информации о событии" style="edgeLabel;html=1;align=center;verticalAlign=middle;resizable=0;points=[];" vertex="1" connectable="0" parent="bBXWs2izji7ijMaOlB8e-104">
          <mxGeometry x="0.008" y="-1" relative="1" as="geometry">
            <mxPoint as="offset" />
          </mxGeometry>
        </mxCell>
        <mxCell id="bBXWs2izji7ijMaOlB8e-106" value="" style="endArrow=classic;html=1;rounded=0;" edge="1" parent="1">
          <mxGeometry width="50" height="50" relative="1" as="geometry">
            <mxPoint x="230" y="180" as="sourcePoint" />
            <mxPoint x="230" y="240" as="targetPoint" />
            <Array as="points">
              <mxPoint x="190" y="180" />
              <mxPoint x="190" y="240" />
            </Array>
          </mxGeometry>
        </mxCell>
        <mxCell id="bBXWs2izji7ijMaOlB8e-107" value="&lt;div&gt;выполнение&lt;/div&gt;&lt;div&gt;команды&lt;/div&gt;" style="edgeLabel;html=1;align=center;verticalAlign=middle;resizable=0;points=[];" vertex="1" connectable="0" parent="bBXWs2izji7ijMaOlB8e-106">
          <mxGeometry x="-0.0466" y="2" relative="1" as="geometry">
            <mxPoint as="offset" />
          </mxGeometry>
        </mxCell>
        <mxCell id="bBXWs2izji7ijMaOlB8e-108" value="" style="endArrow=classic;html=1;rounded=0;" edge="1" parent="1">
          <mxGeometry width="50" height="50" relative="1" as="geometry">
            <mxPoint x="1010" y="400" as="sourcePoint" />
            <mxPoint x="1010" y="450" as="targetPoint" />
            <Array as="points">
              <mxPoint x="1040" y="400" />
              <mxPoint x="1040" y="450" />
            </Array>
          </mxGeometry>
        </mxCell>
        <mxCell id="bBXWs2izji7ijMaOlB8e-109" value="&lt;div&gt;проверка состояния&lt;/div&gt;&lt;div&gt;подсистем&lt;/div&gt;" style="edgeLabel;html=1;align=center;verticalAlign=middle;resizable=0;points=[];" vertex="1" connectable="0" parent="bBXWs2izji7ijMaOlB8e-108">
          <mxGeometry x="-0.0869" y="-1" relative="1" as="geometry">
            <mxPoint as="offset" />
          </mxGeometry>
        </mxCell>
        <mxCell id="bBXWs2izji7ijMaOlB8e-110" value="" style="endArrow=classic;html=1;rounded=0;" edge="1" parent="1">
          <mxGeometry width="50" height="50" relative="1" as="geometry">
            <mxPoint x="1010" y="480" as="sourcePoint" />
            <mxPoint x="860" y="480" as="targetPoint" />
          </mxGeometry>
        </mxCell>
        <mxCell id="bBXWs2izji7ijMaOlB8e-111" value="&lt;div&gt;неисправность,&lt;/div&gt;&lt;div&gt;передача информации&lt;/div&gt;" style="edgeLabel;html=1;align=center;verticalAlign=middle;resizable=0;points=[];fontSize=10;" vertex="1" connectable="0" parent="bBXWs2izji7ijMaOlB8e-110">
          <mxGeometry x="0.0733" y="-4" relative="1" as="geometry">
            <mxPoint x="10" as="offset" />
          </mxGeometry>
        </mxCell>
        <mxCell id="bBXWs2izji7ijMaOlB8e-112" value="" style="endArrow=classic;html=1;rounded=0;" edge="1" parent="1">
          <mxGeometry width="50" height="50" relative="1" as="geometry">
            <mxPoint x="860" y="440" as="sourcePoint" />
            <mxPoint x="60" y="440" as="targetPoint" />
          </mxGeometry>
        </mxCell>
        <mxCell id="bBXWs2izji7ijMaOlB8e-113" value="неисправность критична, уведомление оператора" style="edgeLabel;html=1;align=center;verticalAlign=middle;resizable=0;points=[];" vertex="1" connectable="0" parent="bBXWs2izji7ijMaOlB8e-112">
          <mxGeometry x="0.0033" y="1" relative="1" as="geometry">
            <mxPoint as="offset" />
          </mxGeometry>
        </mxCell>
        <mxCell id="bBXWs2izji7ijMaOlB8e-114" value="" style="endArrow=classic;html=1;rounded=0;" edge="1" parent="1">
          <mxGeometry width="50" height="50" relative="1" as="geometry">
            <mxPoint x="60" y="630" as="sourcePoint" />
            <mxPoint x="860" y="630" as="targetPoint" />
          </mxGeometry>
        </mxCell>
        <mxCell id="bBXWs2izji7ijMaOlB8e-115" value="отправка команды" style="edgeLabel;html=1;align=center;verticalAlign=middle;resizable=0;points=[];" vertex="1" connectable="0" parent="bBXWs2izji7ijMaOlB8e-114">
          <mxGeometry x="-0.0075" y="-3" relative="1" as="geometry">
            <mxPoint x="-1" as="offset" />
          </mxGeometry>
        </mxCell>
        <mxCell id="bBXWs2izji7ijMaOlB8e-116" value="" style="endArrow=classic;html=1;rounded=0;" edge="1" parent="1">
          <mxGeometry width="50" height="50" relative="1" as="geometry">
            <mxPoint x="860" y="600" as="sourcePoint" />
            <mxPoint x="860" y="660" as="targetPoint" />
            <Array as="points">
              <mxPoint x="880" y="600" />
              <mxPoint x="880" y="660" />
            </Array>
          </mxGeometry>
        </mxCell>
        <mxCell id="bBXWs2izji7ijMaOlB8e-117" value="&lt;div&gt;проверка корректности&lt;/div&gt;&lt;div&gt;команды&lt;/div&gt;" style="edgeLabel;html=1;align=center;verticalAlign=middle;resizable=0;points=[];" vertex="1" connectable="0" parent="bBXWs2izji7ijMaOlB8e-116">
          <mxGeometry x="-0.06" y="-2" relative="1" as="geometry">
            <mxPoint x="42" y="-1" as="offset" />
          </mxGeometry>
        </mxCell>
        <mxCell id="bBXWs2izji7ijMaOlB8e-118" value="" style="endArrow=classic;html=1;rounded=0;" edge="1" parent="1">
          <mxGeometry width="50" height="50" relative="1" as="geometry">
            <mxPoint x="860" y="680" as="sourcePoint" />
            <mxPoint x="230" y="680" as="targetPoint" />
          </mxGeometry>
        </mxCell>
        <mxCell id="bBXWs2izji7ijMaOlB8e-119" value="команда разрешена, отправка команды для выполнения" style="edgeLabel;html=1;align=center;verticalAlign=middle;resizable=0;points=[];" vertex="1" connectable="0" parent="bBXWs2izji7ijMaOlB8e-118">
          <mxGeometry x="-0.0183" y="3" relative="1" as="geometry">
            <mxPoint x="-1" as="offset" />
          </mxGeometry>
        </mxCell>
        <mxCell id="bBXWs2izji7ijMaOlB8e-120" value="" style="endArrow=classic;html=1;rounded=0;" edge="1" parent="1">
          <mxGeometry width="50" height="50" relative="1" as="geometry">
            <mxPoint x="230" y="720" as="sourcePoint" />
            <mxPoint x="1180" y="720" as="targetPoint" />
          </mxGeometry>
        </mxCell>
        <mxCell id="bBXWs2izji7ijMaOlB8e-121" value="фиксирование результатов операции" style="edgeLabel;html=1;align=center;verticalAlign=middle;resizable=0;points=[];" vertex="1" connectable="0" parent="bBXWs2izji7ijMaOlB8e-120">
          <mxGeometry x="-0.0003" relative="1" as="geometry">
            <mxPoint x="-1" as="offset" />
          </mxGeometry>
        </mxCell>
      </root>
    </mxGraphModel>
  </diagram>
</mxfile>
